<svg xmlns="http://www.w3.org/2000/svg" xmlns:xlink="http://www.w3.org/1999/xlink" viewBox="0 0 399.364 187.43">
    <defs>
        <path id="a" d="M0 0h399.364v187.43H0z" />
    </defs>
    <clipPath id="b">
        <use xlink:href="#a" overflow="visible" />
    </clipPath>
    <g clip-path="url(#b)">
        <path fill="#A78462" stroke="#47292B" stroke-width="6" stroke-miterlimit="10"
              d="M172.504 226.658c19.563-3.811 18.633 1.949 29.856-7.955 14.746-13.683 47.87-58.727 47.87-58.727-7.542-10.263-39.302-39.406-42.014-42.979-2.712-3.573-5.882 7.698-21.771 7.377-15.889-.321-20.596-2.15-34.224-3.824-14.922-1.83-49.252-10.425-67.958-19.089-18.707-8.664-25.045-23.448-44.171-35.247S.054 47.201 13.02 72.92c7.384 14.646 22.424 24.729 26.989 31.031-10.781-1.296-4.693 7.248-1.573 10.898 5.344 6.251 24.909 22.83 34.801 27.011-22.256.584 22.23 30.634 31.077 33.171-11.696.817-3.452 9.181.94 12.396 6.003 4.394 24.751 13.894 33.029 14.964-5.22 5.112-2.711 15.517 34.221 24.267z" />
        <path fill="#472A2B"
              d="M372.713 195.878c-4.889-26.961-18.432-45.175-29.107-55.816 10.611-9.145 19.6-22.666 23.429-42.71 10.524-55.088-24.928-81.077-42.717-84.476-10.306-1.969-19.435 1.724-26.77 4.687-2.494 1.011-6.049 2.447-8.079 2.81-1.755-1.085-4.53-3.731-6.476-5.59-5.727-5.459-12.851-12.256-23.156-14.226-17.788-3.397-60.329 7.691-70.854 62.779-2.591 13.561-1.878 25.21.86 35.177l.17.074c3.107 9.965 8.982 20.002 16.496 28.145 0 0-20.822 14.043-29.842 51.262-14.275 58.904 6.701 92.208 11.551 100.963.631 1.139-2.217 4.498-8.084 6.346-6.549 2.063-11.452 4.43-17.349 7.584a11.821 11.821 0 00-1.682 4.557c-.981 6.438 3.3 10.467 4.718 11.806 3.552 3.35 7.476 5.481 11.661 6.439 1.709 8.831 8.951 22.665 19.688 24.863.891 2.202 2.216 4.748 4.147 7.724 6.096 9.411 12.222 14.763 18.206 15.906 1.387.265 2.788.286 4.174.135 1.233.651 2.544 1.148 3.935 1.414 5.982 1.143 13.65-1.569 22.785-8.074 2.893-2.055 5.064-3.933 6.703-5.651 10.794 1.915 22.624-8.271 27.469-15.854 4.24.65 8.68.117 13.235-1.695 1.792-.714 7.256-2.887 8.716-9.228.411-1.783.381-3.375.125-4.816 9.171-1.501 19.058-8.335 29.467-20.419 22.21-25.776 42.575-71.022 36.581-104.116z" />
        <path fill="#A68462"
              d="M199.011 294.046a111.915 111.915 0 01-6.162-7.847c-18.779 14.72-22.414 11.24-18.959 14.495 2.191 2.067 4.383 3.233 6.564 3.65 3.704.707 7.395-.739 11.062-3.6 3.775-2.953 5.899-5.235 7.495-6.698zm3.024 3.353a54.216 54.216 0 00-2.131 1.741c-5.744 4.965-10.723 8.913-11.079 13.061-.279 3.275 5.554 15.863 10.745 16.854 1.387.266 2.727-.296 3.893-2.088 6.329-9.723 8.847-15.613 10.554-18.916-3.74-2.732-7.803-6.216-11.982-10.652zm79.184 5.745a111.257 111.257 0 01-8.629 5.015c.938 1.949 2.072 4.845 4.466 8.929 2.351 4.01 5.247 6.715 8.952 7.423 2.185.418 4.651.142 7.451-.973 4.402-1.75-.24.135-12.24-20.394zm-12.674 7.014c-5.529 2.58-10.6 4.313-15.096 5.473.364 3.701.539 10.102 2.832 21.428.425 2.096 1.463 3.111 2.851 3.376 5.191.992 15.254-8.559 16.199-11.707 1.197-3.986-1.973-9.491-5.482-16.225a52.916 52.916 0 00-1.304-2.345zm92.597-112.183c-5.268-29.052-21.646-46.595-31.667-54.898a67.965 67.965 0 01-4.846 2.477c5.581 8.527 15.605 28.215 12.583 56.299-.204 1.888-.44 3.815-.711 5.78-.191 1.398-.425 2.84-.655 4.272-.094.562-.162 1.108-.261 1.679a184.89 184.89 0 01-1.108 5.916c-.012.062-.022.125-.036.187-5.498 26.896-18.25 57.694-46.52 78.748-.014.009-.025.021-.039.03 1.175 5.557 4.416 8.932 10.432 10.081 1.276.244 2.68.391 4.212.438 21.817.672 66.386-68.126 58.616-111.009zM225.45 336.81c1.331-6.772 2.798-14.239 3.9-20.332-2.703-.978-6.618-2.716-11.248-5.648-3.234 5.891-9.104 14.918-10.748 21.872-.882 3.73 9.64 19.025 14.377 19.931.293.056.556.057.793.021a8.434 8.434 0 01.152-1.564c.648-3.394 1.97-10.2 2.774-14.28zm10.629-19.033c-1.219 6.068-2.605 13.544-3.863 20.325a3255.382 3255.382 0 01-2.687 14.295 8.82 8.82 0 01-.434 1.51c.209.121.451.218.745.273 4.74.906 20.155-9.434 20.711-13.228 1.033-7.061-1.086-17.588-1.928-24.255-5.366 1.001-9.644 1.171-12.544 1.08z" />
        <path fill="#A68462"
              d="M290.168 288.463c.05-.05.106-.097.158-.141.263-.232.523-.463.788-.69a103.353 103.353 0 0012.903-13.847c.121-.153.232-.308.351-.46a112.125 112.125 0 004.308-6.027c.332-.489.667-.976.986-1.472.006-.007.009-.015.015-.023a116.273 116.273 0 004.97-8.537l.029-.052c.34-.653.67-1.306 1.001-1.957a124.195 124.195 0 001.891-3.884c.006-.007.01-.018.014-.027.209-.451.409-.914.613-1.368a137.073 137.073 0 001.987-4.623l.001-.006c.126-.31.238-.623.362-.933.677-1.71 1.333-3.428 1.943-5.165.002-.01.005-.013.006-.021.124-.356.238-.714.356-1.073a153.844 153.844 0 003.999-13.783c.089-.381.185-.757.275-1.139.005-.027.015-.055.02-.08.217-.925.442-1.848.644-2.774l.003-.017c.09-.421.167-.842.252-1.265.794-3.825 1.48-7.669 2.025-11.51l.003-.018c.304-2.138.57-4.271.8-6.403 2.957-27.478-7.52-46.216-12.266-53.136-10.521 3.8-20.602 4.845-27.253 5.044-10.506.315-20.471-1.242-25.472-2.198a86.926 86.926 0 01-1.295-.257 96.825 96.825 0 01-1.301-.239c-5.002-.955-14.837-3.18-24.486-7.346-6.109-2.637-15.097-7.325-23.477-14.735-6.965 4.684-23.612 18.242-30.988 44.872a186.368 186.368 0 00-3.652 15.926c-.195 1.021-.39 2.039-.563 3.064l-.002.014a166.737 166.737 0 00-1.271 9.375c0 .021-.004.041-.004.064a137.656 137.656 0 00-.351 3.511c-.001.006.002.012.001.014-.089 1.027-.149 2.054-.215 3.081l-.002.012c-.059.899-.106 1.805-.149 2.71a148.169 148.169 0 00-.122 3.904c-.011.674-.011 1.349-.011 2.024-.005 1.526.006 3.051.054 4.578a132.177 132.177 0 00.142 3.3c.064 1.096.14 2.191.23 3.289a133.788 133.788 0 00.313 3.235c.225 2.059.51 4.116.844 6.166.015.093.027.19.043.287v.002c.186 1.121.372 2.234.589 3.35.004.009.003.014.008.022.113.583.246 1.165.376 1.745a111.172 111.172 0 001.658 6.755c.094.314.178.633.269.95l.008.02c.455 1.574.943 3.141 1.474 4.702.193.527.373 1.057.563 1.589.006.021.016.043.025.064.398 1.109.777 2.22 1.216 3.318.003.004.003.004.004.009.118.299.255.593.385.893 2.433 5.938 5.418 11.753 9.108 17.375 15.137 23.039 30.909 30.231 37.181 32.301l1.414.436 1.474.116c6.593.389 23.905-.483 46.468-16.32 2.95-2.07 5.686-4.298 8.33-6.591z" />
        <path fill="#A68462"
              d="M241.13 137.64c9.334 4.028 19.007 6.157 23.258 6.969.521.1.954.179 1.301.239.343.071.779.158 1.295.257 4.251.813 14.029 2.4 24.19 2.097 13.544-.407 55.304-4.896 64.313-52.056 9.01-47.161-20.383-68.238-33.377-70.721-12.577-2.403-24.945 8.756-34.89 7.717-9.629-2.701-17.012-17.633-29.59-20.035-12.992-2.482-48.087 6.275-57.097 53.436-9.009 47.16 28.157 66.726 40.597 72.097z" />
        <path fill="#CFAB7A"
              d="M311.777 46.02c-10.241-1.956-19.88 4.866-27.948 3.875-7.868-2.054-14.308-11.947-24.554-13.905-10.574-2.021-38.656 2.521-44.429 32.738-5.773 30.22 24.886 44.068 35.112 47.939 8.595 3.254 17.466 4.979 20.072 5.447 2.601.526 11.477 2.192 20.672 2.336 10.928.171 44.534-1.4 50.307-31.619 5.774-30.218-18.652-44.79-29.232-46.811z" />
        <defs>
            <path id="c"
                  d="M241.13 137.64c9.334 4.028 19.007 6.157 23.258 6.969.521.1.954.179 1.301.239.343.071.779.158 1.295.257 4.251.813 14.029 2.4 24.19 2.097 13.544-.407 55.304-4.896 64.313-52.056 9.01-47.161-20.383-68.238-33.377-70.721-12.577-2.403-24.945 8.756-34.89 7.717-9.629-2.701-17.012-17.633-29.59-20.035-12.992-2.482-48.087 6.275-57.097 53.436-9.009 47.16 28.157 66.726 40.597 72.097z" />
        </defs>
        <clipPath id="d">
            <use xlink:href="#c" overflow="visible" />
        </clipPath>
        <g clip-path="url(#d)">
            <path fill="#7E543A"
                  d="M253.266 104.795s1.488 41.429 12.078 43.452c10.584 2.022 26.658-36.052 26.658-36.052l-38.736-7.4z" />
        </g>
        <path fill="#472A2B"
              d="M276.334 89.128c-10.683-2.04-21.029 4.989-23.068 15.667-1.507 7.883 3.298 30.457 13.87 32.477 10.78 2.06 23.316-16.965 24.866-25.076 2.04-10.678-4.988-21.027-15.668-23.068zm-7.612 39.843c-2.688-.514-8.527-15.409-7.155-22.59 1.166-6.103 7.079-10.119 13.182-8.953 6.101 1.165 10.119 7.079 8.953 13.182-1.388 7.255-11.673 18.993-14.98 18.361z" />
        <path fill="#DF7A1C"
              d="M275.064 95.769c-7.03-1.344-13.817 3.268-15.16 10.295-1.343 7.029 4.072 23.723 8.5 24.568 4.979.951 15.615-12.676 16.958-19.705 1.343-7.028-3.27-13.817-10.298-15.158z" />
        <defs>
            <path id="e"
                  d="M259.904 106.063c-1.343 7.029 4.072 23.723 8.5 24.568 4.979.951 15.615-12.676 16.958-19.705 1.343-7.027-3.271-13.816-10.298-15.158-7.03-1.343-13.817 3.268-15.16 10.295z" />
        </defs>
        <clipPath id="f">
            <use xlink:href="#e" overflow="visible" />
        </clipPath>
        <path clip-path="url(#f)" fill="#B15C12"
              d="M259.904 106.063s5.175 19.056 9.742 19.928c4.564.872 16.021-16.297 16.021-16.297s-6.656 25.831-17.447 23.77c-10.794-2.063-8.316-27.401-8.316-27.401z" />
        <path fill="#CFAB7A"
              d="M240.776 275.485c12.623 2.278 56.915-19.035 64.498-58.728 7.459-39.04-35.809-50.161-37.624-50.602l-11.641-2.224c-1.85-.26-46.172-5.872-53.63 33.168-7.583 39.692 25.732 75.832 38.307 78.367l.09.019z" />
        <path fill="#EEB480"
              d="M277.933 114.96c2.016-2.777 5.064-6.662 5.737-7.415.675-.752-2.255-6.358-2.657-5.431-8.479 19.577-8.544 20.378-3.08 12.846z" />
        <g fill="#FFF" stroke="#472A2B" stroke-width="7.038" stroke-miterlimit="10">
            <circle cx="246.737" cy="66.37" r="28.549" />
            <circle cx="312.234" cy="78.882" r="28.549" />
        </g>
        <defs>
            <path id="g"
                  d="M191.638 300.769c-3.666 2.86-7.356 4.307-11.062 3.6-2.181-.417-4.372-1.583-6.564-3.65-3.454-3.255.18.225 18.959-14.495a112.45 112.45 0 006.163 7.847c-1.596 1.461-3.721 3.744-7.496 6.698zm-19.766-77.241c-.552-10.88.671-24.479 2.438-34.427.026-.146.06-.289.088-.438.343-1.917.708-3.811 1.099-5.658.134-.625.284-1.215.419-1.829.305-1.361.604-2.729.927-4.046.471-1.927.961-3.806 1.472-5.635 7.172-25.669 23.528-42.228 32.446-47.696a68.028 68.028 0 01-3.591-4.089c-5.425 4.609-14.063 8.652-24.369 7.532-7.075-.77-5.575 11.241-15.759 24.487 0 0-11.521 66.128-9.854 67.169 1.668 1.04 14.684 4.63 14.684 4.63zm30.285 73.895a54.986 54.986 0 00-2.13 1.741c-5.744 4.965-10.723 8.913-11.079 13.061-.28 3.275 5.554 15.863 10.745 16.854 1.387.266 2.727-.296 3.893-2.088 6.329-9.723 8.847-15.613 10.553-18.916-3.739-2.732-7.802-6.217-11.982-10.652zm79.185 5.744a111.269 111.269 0 01-8.63 5.015c.938 1.949 2.073 4.845 4.467 8.929 2.35 4.01 5.247 6.715 8.952 7.423 2.185.418 4.651.142 7.451-.973 4.402-1.749-.24.135-12.24-20.394zm-12.674 7.015c-5.53 2.58-10.6 4.313-15.097 5.473.365 3.701.54 10.102 2.832 21.428.425 2.096 1.464 3.111 2.851 3.376 5.191.992 15.255-8.559 16.2-11.707 1.197-3.986-1.973-9.491-5.482-16.225a54.431 54.431 0 00-1.304-2.345zm92.597-112.184c-5.268-29.052-21.646-46.595-31.667-54.898a67.965 67.965 0 01-4.846 2.477c5.58 8.527 15.605 28.215 12.582 56.299-.203 1.888-.44 3.815-.71 5.78-.192 1.398-.426 2.84-.655 4.272-.094.562-.162 1.108-.262 1.679a179.487 179.487 0 01-1.108 5.916c-.012.062-.021.126-.035.187-5.498 26.896-18.25 57.694-46.52 78.748-.014.009-.025.021-.04.03 1.176 5.557 4.416 8.932 10.433 10.082 1.275.243 2.68.39 4.212.437 21.817.673 66.386-68.125 58.616-111.009zM225.572 336.833c1.332-6.772 2.799-14.239 3.9-20.332-2.702-.978-6.617-2.716-11.247-5.648-3.235 5.891-9.104 14.918-10.748 21.872-.882 3.73 9.64 19.025 14.377 19.931.293.056.556.057.793.021 0-.512.051-1.034.151-1.564.649-3.393 1.972-10.2 2.774-14.28zm10.63-19.032c-1.219 6.068-2.605 13.544-3.863 20.325a3107.465 3107.465 0 01-2.688 14.295 8.644 8.644 0 01-.434 1.51c.21.121.452.218.745.273 4.741.906 20.156-9.434 20.712-13.228 1.032-7.061-1.086-17.588-1.928-24.255-5.366 1.001-9.644 1.171-12.544 1.08zm54.089-29.315c.049-.05.105-.097.158-.141.263-.232.523-.463.788-.69a103.353 103.353 0 0012.904-13.847c.121-.153.231-.308.351-.46a111.55 111.55 0 004.307-6.027c.333-.489.668-.976.987-1.472.006-.007.009-.015.015-.023a116.273 116.273 0 004.97-8.537l.029-.052c.34-.653.669-1.306 1-1.957a124.22 124.22 0 001.892-3.884c.006-.007.01-.018.014-.027.209-.451.409-.914.613-1.368a137.05 137.05 0 001.986-4.623l.001-.006c.127-.31.238-.623.363-.933.677-1.71 1.333-3.428 1.943-5.165l.006-.021c.124-.356.238-.714.356-1.073a154.176 154.176 0 003.999-13.783c.089-.381.185-.757.275-1.139.005-.027.015-.055.02-.08.216-.925.442-1.848.643-2.774a.105.105 0 00.004-.017c.09-.421.166-.842.251-1.265a182.899 182.899 0 002.026-11.51l.003-.018c.303-2.138.569-4.271.8-6.403 2.957-27.478-7.52-46.216-12.267-53.136-10.521 3.8-20.601 4.845-27.253 5.044-10.505.315-20.47-1.242-25.472-2.198-.508-.097-.94-.184-1.295-.257-.355-.063-.792-.142-1.301-.239-5.001-.955-14.836-3.18-24.485-7.346-6.11-2.637-15.098-7.325-23.477-14.735-6.966 4.684-23.612 18.242-30.988 44.872a186.371 186.371 0 00-3.653 15.926c-.194 1.021-.39 2.039-.562 3.064l-.002.014a165.82 165.82 0 00-1.271 9.375c0 .021-.004.041-.005.064a142.346 142.346 0 00-.35 3.511c-.002.006.001.012.001.014-.089 1.027-.149 2.054-.215 3.081l-.002.012c-.059.899-.106 1.805-.15 2.71a148.169 148.169 0 00-.121 3.904c-.012.674-.011 1.349-.011 2.024-.006 1.526.006 3.051.054 4.578a137.248 137.248 0 00.142 3.3c.064 1.096.14 2.192.23 3.289.088 1.066.194 2.135.309 3.202.002.009.006.021.004.033.225 2.059.51 4.116.844 6.166.015.093.027.19.043.287v.002c.186 1.121.372 2.234.589 3.35.004.009.003.014.007.023.113.582.247 1.164.377 1.744a110.433 110.433 0 001.658 6.755c.093.314.178.633.268.95.004.005.006.013.009.02.455 1.574.942 3.141 1.474 4.702.193.527.373 1.057.563 1.589.006.021.016.043.025.064.398 1.11.777 2.22 1.216 3.318.003.004.003.004.004.009.118.299.255.593.385.893 2.432 5.938 5.418 11.753 9.107 17.375 15.138 23.039 30.91 30.231 37.182 32.301l1.414.436 1.473.116c6.594.389 23.906-.483 46.469-16.32 2.949-2.069 5.685-4.298 8.329-6.591zm-49.038-150.823c9.334 4.028 19.007 6.157 23.258 6.969.521.1.954.179 1.301.239.342.071.778.158 1.295.257 4.251.813 14.029 2.4 24.19 2.097 13.544-.407 55.304-4.896 64.313-52.056 9.01-47.161-20.384-68.238-33.377-70.721-12.577-2.403-24.945 8.756-34.89 7.717-9.63-2.701-17.012-17.633-29.591-20.035-12.991-2.482-48.086 6.275-57.097 53.436-9.009 47.161 28.158 66.726 40.598 72.097z" />
        </defs>
        <clipPath id="h">
            <use xlink:href="#g" overflow="visible" />
        </clipPath>
        <g clip-path="url(#h)">
            <path fill="#7E543A"
                  d="M178.852 231.265s18.216 63.556 55.936 70.762c43.123 8.238 79.982-44.737 79.982-44.737l-1.216 8.403-23.872 28.364-25.538 13.578-17.055 5.72s-8.248 1.417-13.543.405c-5.297-1.012-19.27-6.175-25.591-14.863-6.322-8.69-20.794-26.923-23.932-34.005-3.137-7.082-6.031-31.082-6.031-31.082l.86-2.545z" />
        </g>
        <path clip-path="url(#h)" fill="#7E543A"
              d="M282.479 301.41l-12.387 5.116-10.876 5.03-26.024 4.06-22.697-13.367-8.256-8.686-9.626-9.322-5.643 6.031.547.418s2.976.066 6.364 3.209c3.393 3.144 1.994 7.861 1.994 7.861s5.578.817 10.801 4.81c5.223 3.988 6.122 8.089 6.122 8.089l2.208 1.172s3.853-.576 7.829 1.12c3.979 1.694 5.782 5.968 5.782 5.968l2.68.657-.008.04.365.048.356.091.008-.041 2.733.377s3.251-3.308 7.572-3.417c4.324-.11 7.691 1.846 7.691 1.846l2.484-.275s2.349-3.48 8.673-5.263c6.328-1.785 11.813-.489 11.813-.489s.438-4.901 4.751-6.572c4.309-1.673 7.101-.636 7.101-.636l.662-.188-3.019-7.687z" />
        <g clip-path="url(#h)">
            <path fill="#7E543A"
                  d="M181.209 164.097s-14.798 33.086-12.232 74.477c2.566 41.396 14.659 51.188 14.659 51.188l8.28-9.393s-17.538-28.298-15.979-70.392c1.559-42.1 5.272-45.88 5.272-45.88zm156.158 29.833s1.561 36.211-16.085 73.741c-17.646 37.535-32.495 42.178-32.495 42.178l-4.235-11.783s26.736-19.839 40.802-59.543c14.073-39.71 12.013-44.593 12.013-44.593z" />
        </g>
        <path clip-path="url(#h)" fill="#7E543A"
              d="M277.289 150.782c7.178-.625 13.016 2.095 13.016 2.095s4.757-2.688 19.069 1.541c14.319 4.231 21.482 11.587 21.482 11.587l-6.419-13.946-5.293-6.997-21.188 5.179-33.136-2.143-28.509-9.386-20.492-14.138-7.879 5.228-10.53 10.208s9.893-4.344 24.76-2.999c14.87 1.344 17.199 6.135 17.199 6.135s6.519-.855 12.962 2.367l24.958 5.269z" />
        <g clip-path="url(#h)" fill="#7E543A">
            <path d="M188.549 125.012s-.921 4.817 1.218 7.966c2.142 3.151 9.41 4.293 9.41 4.293l14.819-13.629-10.696-9.275-14.751 10.645zm144.552 39.674s4.582 2.122 7.737-.02c3.15-2.14 3.013-6.654 3.013-6.654l1.543-5.441-12.313-12.579-10.293 4.271 1.956 9.352 8.357 11.071z" />
        </g>
        <path fill="#B15C12"
              d="M185.005 323.611c-1.074-.205-3.735-.982-5.219-3.753-1.578-2.956-1.252-7.121.972-12.38 5.543-13.112 17.409-15.638 17.912-15.738a1.981 1.981 0 011.763.504l9.063 8.518a2 2 0 01-.922 3.407c-2.757.638-10.222 3.305-11.601 7.919-2.238 7.502-8.516 11.558-10.7 11.638a5.857 5.857 0 01-1.265-.114h-.003z" />
        <path fill="#472A2B"
              d="M199.063 293.7l9.063 8.518s-11.048 2.53-13.068 9.297-7.617 10.167-8.856 10.213a3.94 3.94 0 01-.819-.081c-2.243-.429-7.255-2.808-2.781-13.391 5.193-12.288 16.461-14.556 16.461-14.556m.75-3.929a3.962 3.962 0 00-1.538.008c-.544.109-13.409 2.845-19.359 16.92-2.471 5.844-2.771 10.588-.893 14.101 1.329 2.487 3.738 4.228 6.606 4.775a7.847 7.847 0 001.713.15c3.566-.13 10.225-5.284 12.546-13.067 1.022-3.424 7.268-5.885 10.131-6.541a3.998 3.998 0 002.967-2.852 3.998 3.998 0 00-1.121-3.962l-9.063-8.519a4.014 4.014 0 00-1.989-1.013z" />
        <path fill="#B15C12"
              d="M197.319 330.491c-3.133-.599-6.945-3.237-7.312-12.404-.666-16.602 14.345-21.37 14.497-21.416a2.001 2.001 0 011.963.464l8.469 8.066c.5.476.718 1.176.581 1.85a2.005 2.005 0 01-1.26 1.473c-.078.029-8.168 3.226-7.59 7.995.871 7.182-2.896 13.382-5.764 13.9-.661.124-1.999.375-3.584.072z" />
        <path fill="#472A2B"
              d="M205.088 298.583l8.471 8.067s-9.663 3.616-8.875 10.109c.786 6.489-2.708 11.434-4.135 11.69-.416.075-1.546.326-2.854.076-2.388-.456-5.372-2.585-5.689-10.52-.61-15.249 13.082-19.422 13.082-19.422m.75-3.929a3.977 3.977 0 00-1.916.104c-5.758 1.753-16.494 8.904-15.914 23.408.441 11.032 5.788 13.688 8.937 14.29 1.957.374 3.615.063 4.239-.055l.076-.014c4.143-.748 8.364-8.1 7.395-16.109-.301-2.483 4.213-5.081 6.316-5.887a4.01 4.01 0 002.503-2.951 3.998 3.998 0 00-1.157-3.686l-8.471-8.066a3.991 3.991 0 00-2.008-1.034z" />
        <path fill="#B15C12"
              d="M209.504 335.46c-3.553-.679-6.321-3.726-8.229-9.057-4.39-12.259 8.218-23.421 8.758-23.891a1.999 1.999 0 012.517-.088l7.836 5.916c.513.386.808.995.795 1.637a1.994 1.994 0 01-.858 1.602c-.054.04-5.792 4.129-3.78 8.129 3.051 6.063 2.052 12.645-.877 14.479-1.122.701-3.412 1.799-6.159 1.273h-.003z" />
        <path fill="#472A2B"
              d="M211.344 304.022l7.838 5.915s-7.258 5.04-4.426 10.67c2.831 5.629 1.531 10.829-.153 11.884-.515.322-2.435 1.441-4.724 1.004-2.212-.422-4.766-2.301-6.723-7.767-3.978-11.114 8.188-21.706 8.188-21.706m.753-3.928a3.995 3.995 0 00-3.378.911c-.581.506-14.171 12.542-9.329 26.072 2.166 6.045 5.441 9.526 9.741 10.348 3.418.653 6.226-.686 7.594-1.542 3.745-2.345 5.281-9.765 1.604-17.074-1.191-2.37 3.107-5.567 3.151-5.599a4.013 4.013 0 00.112-6.465l-7.836-5.915a3.98 3.98 0 00-1.659-.736z" />
        <path fill="#B15C12"
              d="M274.791 340.765c1.074.205 3.835.464 6.234-1.565 2.558-2.166 3.79-6.158 3.661-11.865-.319-14.233-10.419-20.954-10.849-21.233a1.997 1.997 0 00-1.824-.182l-11.564 4.577a2 2 0 00-.399 3.507c2.328 1.61 8.284 6.841 7.864 11.638-.685 7.8 3.655 13.884 5.656 14.764.329.144.762.272 1.218.359h.003z" />
        <path fill="#472A2B"
              d="M272.75 307.777s9.639 6.262 9.938 19.6c.258 11.487-5.278 11.852-7.521 11.423a3.873 3.873 0 01-.792-.227c-1.136-.5-5.085-5.724-4.469-12.759s-8.723-13.46-8.723-13.46l11.567-4.577m.75-3.928a3.999 3.999 0 00-2.223.21l-11.564 4.577a3.997 3.997 0 00-.795 7.014c2.42 1.666 7.316 6.256 7.005 9.815-.711 8.091 3.578 15.337 6.846 16.772a7.851 7.851 0 001.647.491c2.868.548 5.75-.182 7.901-2.004 3.041-2.573 4.511-7.094 4.368-13.437-.342-15.277-11.293-22.563-11.758-22.864a3.981 3.981 0 00-1.427-.574z" />
        <path fill="#B15C12"
              d="M260.808 342.62c3.133.599 7.65-.449 11.37-8.836 6.739-15.187-5.459-25.152-5.581-25.251a2.012 2.012 0 00-1.997-.292l-10.846 4.376a2.002 2.002 0 00-.594 3.339c.061.055 6.402 6.009 4.106 10.229-3.455 6.355-2.238 13.507.235 15.046.568.359 1.722 1.086 3.304 1.389h.003z" />
        <path fill="#472A2B"
              d="M265.35 310.096s11.189 8.927 5 22.878c-3.22 7.26-6.778 8.139-9.168 7.682-1.307-.249-2.265-.899-2.625-1.123-1.23-.765-2.655-6.648.468-12.391 3.124-5.746-4.522-12.67-4.522-12.67l10.847-4.376m.75-3.929a3.99 3.99 0 00-2.247.221l-10.848 4.376a4.003 4.003 0 00-2.435 2.999 4.016 4.016 0 001.236 3.667c1.662 1.524 4.899 5.603 3.704 7.8-3.854 7.089-2.64 15.479.935 17.701l.066.04c.535.339 1.964 1.24 3.919 1.614 3.15.602 9.1.104 13.577-9.989 5.885-13.269-1.459-23.874-6.166-27.627a3.978 3.978 0 00-1.741-.802z" />
        <path fill="#B15C12"
              d="M247.648 342.747c3.555.679 7.251-1.132 10.99-5.385 8.599-9.777.994-24.801.666-25.437a1.996 1.996 0 00-1.402-1.045 1.989 1.989 0 00-.906.035l-9.467 2.61a2.003 2.003 0 00-1.134 3.035c.036.057 3.863 5.974.517 8.949-5.069 4.512-6.566 10.998-4.52 13.783.784 1.065 2.508 2.93 5.256 3.455z" />
        <path fill="#472A2B"
              d="M257.526 312.845s7.407 14.332-.389 23.196c-3.834 4.36-6.902 5.164-9.114 4.741-2.287-.437-3.659-2.184-4.019-2.674-1.18-1.602-.471-6.915 4.238-11.104 4.706-4.189-.181-11.55-.181-11.55l9.465-2.609m.749-3.929a3.968 3.968 0 00-1.812.073l-9.465 2.61a3.997 3.997 0 00-2.67 2.444 4.015 4.015 0 00.391 3.606c.029.045 2.845 4.602.864 6.364-6.114 5.44-7.419 12.904-4.802 16.464.956 1.301 3.072 3.58 6.49 4.233 4.3.821 8.628-1.207 12.868-6.029 9.49-10.791 1.295-26.99.94-27.674a3.996 3.996 0 00-2.804-2.091z" />
        <circle fill="#342209" cx="241.181" cy="56.78" r="8.95" />
        <circle fill="#342209" cx="307.47" cy="69.444" r="8.951" />
    </g>
</svg>
