<svg xmlns="http://www.w3.org/2000/svg" xmlns:xlink="http://www.w3.org/1999/xlink" viewBox="0 0 322.95 347.208">
    <path fill="#A78462" stroke="#47292B" stroke-width="6" stroke-miterlimit="10"
          d="M246.874 192.751c-3.454-11.623-22.52-47.959-23.8-52.033-1.276-4.074-7.746 5.005-21.878-.399s-28.759-19.946-40.604-25.474c-11.846-5.527-20.192-.138-31.294-.065-11.103.074-24.066-9.8-36.332-13.365-12.268-3.566-44.257-9.941-53.363-16.983-4.349-3.358-8.757-1.521-8.499 2.717 1.129 18.638 15.378 25.401 26.805 31.327-11.613-3.271-25.679-13.383-29.389 2.949.97 14.26 18.115 26.88 25.506 27.784-5.211 1.489-10.857 5.896-15.159 17.543 6.099 12.908 26.298 12.41 31.767 12.047-4.435 2.355-9.771 9.981-8.83 16.344 5.504 5.187 14.992 8.309 23.421 5.272-4.497 4.806-2.462 13.056 3.763 16.396 6.869 2.11 15.746-.171 24.654-5.502-2.306 6.2 1.775 13.955 9.407 16.946 6.486.563 9.886-.747 14.472-5.774.155 5.897 2.441 9.274 6.7 11.425 3.779 1.907 27.614 1.301 40.859-3.956 17.615-7.512 61.794-37.199 61.794-37.199z" />
    <path fill="#472A2B"
          d="M318.18 162.474c-9.388-24.337-25.306-38.949-37.188-46.992 8.288-10.446 14.278-24.697 14.278-44.122C295.271 17.969 257.477 0 240.235 0c-9.987 0-17.863 5.085-24.192 9.166-2.151 1.391-5.219 3.369-7.054 4.07-1.834-.701-4.901-2.68-7.052-4.07C195.607 5.085 187.732 0 177.742 0c-17.239 0-55.037 17.969-55.037 71.359 0 13.143 2.749 23.908 7.088 32.737l.172.041c4.688 8.76 11.974 17.097 20.454 23.369 0 0-16.963 16.851-18.748 53.264-2.825 57.63 22.74 85.021 28.838 92.341.794.95-1.27 4.602-6.427 7.378-5.754 3.099-9.915 6.187-14.865 10.19a11.224 11.224 0 00-.759 4.561c.232 6.194 4.955 9.198 6.52 10.197 3.921 2.496 7.971 3.789 12.055 3.937 3.175 7.952 12.418 19.595 22.851 19.731 1.228 1.9 2.922 4.044 5.26 6.482 7.379 7.709 14.063 11.62 19.863 11.62 1.346 0 2.659-.23 3.926-.618 1.271.388 2.585.618 3.933.618 5.798 0 12.484-3.907 19.863-11.62 2.338-2.438 4.034-4.582 5.26-6.482 10.434-.137 19.676-11.773 22.852-19.731 4.082-.147 8.137-1.44 12.072-3.948 1.55-.987 6.271-3.995 6.502-10.186a11.264 11.264 0 00-.744-4.525c8.309-3.042 16.331-11.198 23.904-24.357 16.162-28.067 27.122-74.012 15.605-103.884z" />
    <path fill="#A68462"
          d="M173.295 285.294a107.45 107.45 0 01-7.163-6.238c-14.93 17.12-18.951 14.515-15.138 16.94 2.419 1.541 4.675 2.241 6.79 2.241 3.59 0 6.782-2.012 9.698-5.342 3.004-3.435 4.582-5.95 5.813-7.601zm3.428 2.595a52.459 52.459 0 00-1.682 2.008c-4.483 5.669-8.434 10.25-8.027 14.19.324 3.114 8.027 13.843 13.06 13.843 1.343 0 2.496-.764 3.268-2.646 4.181-10.225 5.481-16.181 6.488-19.573-3.986-1.889-8.407-4.422-13.107-7.822zm75.068-8.774a105.872 105.872 0 01-7.174 6.229c1.225 1.654 2.803 4.16 5.771 7.551 2.913 3.33 6.106 5.342 9.695 5.342 2.118 0 4.377-.7 6.795-2.241 3.805-2.422-.201.171-15.087-16.881zm-10.599 8.822c-4.71 3.401-9.141 5.929-13.138 7.813 1.002 3.397 2.309 9.351 6.475 19.533.771 1.883 1.924 2.646 3.27 2.646 5.032 0 12.733-10.729 13.056-13.843.408-3.94-3.541-8.521-8.023-14.19a52.784 52.784 0 00-1.64-1.959zM307.735 166.5c-10.115-26.223-28.563-39.703-39.418-45.675a64.154 64.154 0 01-4.09 3.181c6.744 6.975 19.633 23.595 21.824 50.395.146 1.8.27 3.646.368 5.532.071 1.341.109 2.73.15 4.111.014.541.046 1.065.056 1.616.04 1.875.043 3.792.02 5.729 0 .06.002.122 0 .183-.335 26.13-6.758 57.207-29.43 81.939l-.032.036c2.093 4.987 5.725 7.562 11.557 7.562 1.235 0 2.575-.111 4.016-.342 20.521-3.266 49.904-75.556 34.979-114.267zM205.657 320.556c.035-6.57.071-13.814.015-19.708-2.703-.431-6.673-1.356-11.525-3.271-1.973 6.086-5.85 15.574-6.144 22.37-.158 3.646 12.413 16.068 17.003 16.068.284 0 .53-.047.746-.122a7.978 7.978 0 01-.138-1.49c0-3.289.021-9.887.043-13.847zm6.539-19.695c-.058 5.893-.017 13.13.018 19.694.023 3.96.041 10.559.041 13.847 0 .514-.047 1.012-.135 1.49.217.075.461.122.744.122 4.596 0 17.163-12.423 17.004-16.068-.296-6.786-4.156-16.251-6.134-22.337-4.84 1.897-8.81 2.819-11.538 3.252z" />
    <path fill="#A68462"
          d="M257.535 263.788c.037-.056.081-.109.122-.16.204-.263.407-.525.613-.786a98.282 98.282 0 009.594-15.25c.084-.164.16-.33.246-.492a106.765 106.765 0 002.947-6.406c.226-.516.451-1.031.661-1.552.005-.009.006-.016.011-.024a110.3 110.3 0 003.121-8.871c.004-.019.012-.035.019-.054.2-.671.393-1.339.585-2.008.379-1.318.744-2.641 1.076-3.97.003-.009.004-.018.008-.028.114-.459.219-.927.328-1.389.367-1.555.721-3.112 1.031-4.678v-.006c.063-.312.111-.625.173-.938.327-1.717.635-3.441.895-5.176l.002-.02c.054-.354.098-.709.143-1.068a146.246 146.246 0 001.275-13.601c.016-.373.038-.74.056-1.115 0-.025.004-.054.004-.077.036-.904.083-1.808.105-2.709v-.017c.008-.41.005-.817.008-1.228.061-3.719.016-7.436-.16-11.125v-.018a184.918 184.918 0 00-.396-6.127c-2.145-26.225-15.288-41.873-20.963-47.495-9.157 5.433-18.396 8.21-24.583 9.585-9.765 2.171-19.361 2.495-24.208 2.495-.494 0-.913-.005-1.258-.01a84.4 84.4 0 01-1.258.01c-4.848 0-14.441-.324-24.207-2.495-6.185-1.375-15.426-4.152-24.584-9.585-5.678 5.622-18.82 21.275-20.961 47.495a176.954 176.954 0 00-.571 15.542c0 .987 0 1.977.024 2.965v.014c.067 2.998.245 5.997.485 8.993.005.02.005.041.007.062.09 1.114.184 2.232.301 3.345 0 .006.004.013.004.015.1.976.226 1.946.35 2.918v.012c.104.851.223 1.706.344 2.56.178 1.223.373 2.44.583 3.659v.013c.109.633.231 1.262.351 1.896a121.81 121.81 0 001.585 7.302c.003.011.007.019.007.029.257 1.014.521 2.023.803 3.033a127.962 127.962 0 00.869 2.97c.58 1.884 1.213 3.757 1.892 5.615l.091.26v.002c.374 1.016.747 2.021 1.149 3.026.005.007.005.014.011.021.211.525.439 1.045.664 1.563.851 2.03 1.773 4.038 2.758 6.021.142.278.278.561.42.842a101.615 101.615 0 002.229 4.151c.277.458.537.921.81 1.384.011.02.024.037.038.056.57.966 1.122 1.936 1.728 2.884.005.004.005.004.006.008.163.258.346.51.519.766 3.336 5.118 7.166 10.021 11.62 14.621 18.271 18.838 34.304 22.746 40.537 23.562l1.399.153 1.399-.153c6.234-.815 22.266-4.724 40.535-23.562 2.386-2.465 4.547-5.039 6.608-7.655z" />
    <path fill="#A68462"
          d="M184.738 131.523c9.447 2.098 18.872 2.36 22.993 2.36.504 0 .924-.003 1.258-.01.335.007.758.01 1.258.01 4.12 0 13.546-.263 22.992-2.36 12.594-2.8 50.84-14.455 50.84-60.164 0-45.708-31.251-60.166-43.844-60.166-12.19 0-21.761 12.644-31.246 13.449-9.484-.806-19.055-13.449-31.247-13.449-12.591 0-43.842 14.458-43.842 60.166 0 45.709 38.249 57.365 50.838 60.164z" />
    <path fill="#CFAB7A"
          d="M234.433 33.231c-9.927 0-17.719 8.102-25.443 8.617-7.723-.516-15.51-8.617-25.441-8.617-10.249 0-35.695 9.264-35.695 38.549 0 29.289 31.143 36.762 41.396 38.554 8.618 1.508 17.22 1.535 19.74 1.508 2.525.027 11.124 0 19.748-1.508 10.248-1.792 41.391-9.265 41.391-38.554-.001-29.285-25.442-38.549-35.696-38.549z" />
    <defs>
        <path id="a"
              d="M184.738 131.523c9.447 2.098 18.872 2.36 22.993 2.36.504 0 .924-.003 1.258-.01.335.007.758.01 1.258.01 4.12 0 13.546-.263 22.992-2.36 12.594-2.8 50.84-14.455 50.84-60.164 0-45.708-31.251-60.166-43.844-60.166-12.19 0-21.761 12.644-31.246 13.449-9.484-.806-19.055-13.449-31.247-13.449-12.591 0-43.842 14.458-43.842 60.166 0 45.709 38.249 57.365 50.838 60.164z" />
    </defs>
    <clipPath id="b">
        <use xlink:href="#a" overflow="visible" />
    </clipPath>
    <g clip-path="url(#b)">
        <path fill="#7E543A"
              d="M190.22 98.643s8.792 38.473 19.055 38.473c10.258 0 18.487-38.473 18.487-38.473H190.22z" />
    </g>
    <path fill="#472A2B"
          d="M208.989 79.872c-10.352 0-18.77 8.422-18.77 18.771 0 7.64 8.523 27.891 18.77 27.891 10.448 0 18.772-20.029 18.772-27.891.001-10.349-8.421-18.771-18.772-18.771zm0 38.616c-2.604 0-10.727-12.886-10.727-19.846 0-5.915 4.813-10.727 10.727-10.727 5.915 0 10.727 4.812 10.727 10.727 0 7.033-7.52 19.846-10.727 19.846z" />
    <path fill="#DF7A1C"
          d="M208.989 86.31c-6.813 0-12.334 5.522-12.334 12.333 0 6.813 8.045 21.455 12.334 21.455 4.826 0 12.338-14.643 12.338-21.455 0-6.811-5.525-12.333-12.338-12.333z" />
    <defs>
        <path id="c"
              d="M196.655 98.643c0 6.813 8.045 21.455 12.334 21.455 4.826 0 12.338-14.643 12.338-21.455 0-6.811-5.525-12.333-12.338-12.333-6.813 0-12.334 5.522-12.334 12.333z" />
    </defs>
    <clipPath id="d">
        <use xlink:href="#c" overflow="visible" />
    </clipPath>
    <path clip-path="url(#d)" fill="#B15C12"
          d="M196.655 98.643s8.241 16.893 12.669 16.893c4.423 0 12.067-18.099 12.067-18.099s-1.609 25.342-12.067 25.342c-10.463-.001-12.669-24.136-12.669-24.136z" />
    <path fill="#CFAB7A"
          d="M209.033 260.477c12.21-.125 49.817-27.964 49.817-66.432 0-37.839-42.443-40.509-44.218-40.596h-11.284c-1.774.087-44.221 2.757-44.221 40.596 0 38.468 37.608 66.307 49.817 66.432h.089z" />
    <path fill="#EEB480"
          d="M215.1 103.74c1.39-2.956 3.545-7.133 4.042-7.956.496-.824-3.246-5.544-3.455-4.604-4.432 19.819-4.35 20.58-.587 12.56z" />
    <g fill="#FFF" stroke="#472A2B" stroke-width="7.038" stroke-miterlimit="10">
        <circle cx="177.25" cy="63.879" r="27.177" />
        <circle cx="240.729" cy="63.879" r="27.177" />
    </g>
    <defs>
        <path id="e"
              d="M167.603 292.896c-2.918 3.33-6.11 5.342-9.701 5.342-2.112 0-4.37-.7-6.788-2.241-3.813-2.426.207.18 15.139-16.94a106.664 106.664 0 007.163 6.238c-1.233 1.65-2.812 4.165-5.813 7.601zm-31.468-65.527c-3.297-12.229-4.538-24.479-4.683-35.791-.002-.141.003-.28.003-.424-.022-1.856-.018-3.69.017-5.488.014-.607.048-1.186.064-1.784.042-1.328.076-2.659.144-3.949.098-1.886.22-3.732.37-5.532 2.12-25.283 14.457-43.688 21.819-50.395a64.978 64.978 0 01-4.088-3.181c-4.251 5.277-11.604 10.602-21.441 11.396-6.753.544-10.821 20.074-17.977 34.279-13.117 26.042 5.781 72.018 20.198 68.69m46.281 52.699a51.551 51.551 0 00-1.682 2.008c-4.484 5.669-8.433 10.25-8.027 14.19.323 3.114 8.027 13.843 13.06 13.843 1.345 0 2.496-.764 3.266-2.646 4.183-10.225 5.484-16.181 6.489-19.573-3.984-1.889-8.406-4.422-13.106-7.822zm75.067-8.774a105.153 105.153 0 01-7.175 6.229c1.227 1.654 2.806 4.16 5.772 7.551 2.913 3.33 6.105 5.342 9.696 5.342 2.116 0 4.376-.7 6.794-2.241 3.806-2.422-.198.171-15.087-16.881zm-10.599 8.822c-4.707 3.401-9.139 5.929-13.139 7.813 1.005 3.397 2.312 9.351 6.479 19.533.771 1.883 1.925 2.646 3.268 2.646 5.03 0 12.735-10.729 13.057-13.843.407-3.94-3.54-8.521-8.026-14.19a50.027 50.027 0 00-1.639-1.959zM307.854 166.5c-10.117-26.223-28.564-39.703-39.417-45.675a65.011 65.011 0 01-4.09 3.181c6.742 6.975 19.632 23.595 21.822 50.395.146 1.8.27 3.646.369 5.532.069 1.341.108 2.73.149 4.111.013.541.046 1.065.057 1.616.04 1.875.045 3.792.021 5.729 0 .06.002.122 0 .183-.337 26.13-6.759 57.207-29.432 81.939l-.03.036c2.09 4.987 5.724 7.562 11.554 7.562a25.45 25.45 0 004.018-.342c20.521-3.266 49.905-75.556 34.979-114.267zM205.775 320.556c.036-6.57.073-13.814.015-19.708-2.7-.431-6.673-1.356-11.524-3.271-1.973 6.086-5.849 15.574-6.145 22.37-.157 3.646 12.413 16.068 17.003 16.068.286 0 .53-.047.748-.122a7.894 7.894 0 01-.139-1.49c0-3.289.02-9.887.042-13.847zm6.541-19.695c-.058 5.893-.019 13.13.018 19.694.022 3.96.04 10.559.04 13.847 0 .514-.048 1.012-.135 1.49.218.075.461.122.744.122 4.596 0 17.161-12.423 17.005-16.068-.297-6.786-4.156-16.251-6.137-22.337-4.839 1.897-8.807 2.819-11.535 3.252zm45.337-37.073c.037-.056.083-.109.123-.16l.614-.786a98.338 98.338 0 009.585-15.24c0-.001.007-.008.007-.01.086-.164.163-.33.245-.492a104.38 104.38 0 002.951-6.406c.223-.516.449-1.031.66-1.552.004-.009.005-.016.01-.024a111.084 111.084 0 003.121-8.871l.019-.054c.2-.671.394-1.339.586-2.008a121.77 121.77 0 001.075-3.97l.008-.028c.113-.459.219-.927.329-1.389a136.42 136.42 0 001.032-4.678v-.006c.063-.312.11-.625.173-.938.326-1.717.632-3.441.894-5.176l.002-.02c.051-.354.095-.709.141-1.068a146.593 146.593 0 001.277-13.601c.015-.373.038-.74.053-1.115 0-.025.006-.054.006-.077.037-.904.082-1.808.105-2.709v-.017c.008-.41.005-.817.008-1.228.061-3.719.016-7.436-.16-11.125v-.018a190.513 190.513 0 00-.396-6.127c-2.145-26.225-15.287-41.873-20.962-47.495-9.159 5.433-18.399 8.21-24.582 9.585-9.768 2.171-19.361 2.495-24.21 2.495-.492 0-.913-.005-1.256-.01-.346.005-.768.01-1.26.01-4.848 0-14.44-.324-24.207-2.495-6.185-1.375-15.426-4.152-24.586-9.585-5.676 5.622-18.819 21.275-20.959 47.495a177.732 177.732 0 00-.571 15.542c0 .987 0 1.977.024 2.965v.014c.068 2.998.243 5.997.484 8.993.006.02.006.041.009.062.089 1.114.183 2.232.299 3.345 0 .006.003.013.003.015.103.976.228 1.946.351 2.918v.012a137.75 137.75 0 00.928 6.232c.11.633.23 1.262.353 1.896.268 1.428.549 2.852.867 4.27.227 1.015.466 2.024.717 3.032a.101.101 0 01.004.029c.258 1.014.523 2.023.804 3.033.274.983.563 1.962.86 2.94.004.009.011.019.011.03a114.59 114.59 0 001.89 5.615c.031.083.06.173.092.26v.002a123.82 123.82 0 001.15 3.026c.003.007.003.014.011.021.209.525.438 1.045.663 1.563.851 2.03 1.773 4.038 2.758 6.021.143.278.277.561.42.842.003.002.007.011.012.015a95.778 95.778 0 002.219 4.136c.273.458.535.921.809 1.384.011.02.023.037.037.056.569.966 1.121 1.936 1.729 2.884l.004.008c.166.258.344.51.521.766 3.335 5.118 7.165 10.021 11.62 14.621 18.269 18.838 34.302 22.746 40.537 23.562l1.4.153 1.396-.153c6.235-.815 22.269-4.724 40.535-23.562 2.388-2.465 4.549-5.039 6.608-7.655zm-72.795-132.265c9.446 2.098 18.872 2.36 22.992 2.36.504 0 .925-.003 1.26-.01.332.007.756.01 1.256.01 4.121 0 13.547-.263 22.994-2.36 12.592-2.8 50.838-14.455 50.838-60.164 0-45.708-31.251-60.166-43.844-60.166-12.189 0-21.76 12.644-31.244 13.449-9.486-.806-19.058-13.449-31.249-13.449-12.591 0-43.841 14.458-43.841 60.166.001 45.709 38.247 57.365 50.838 60.164z" />
    </defs>
    <clipPath id="f">
        <use xlink:href="#e" overflow="visible" />
    </clipPath>
    <g clip-path="url(#f)">
        <path fill="#7E543A"
              d="M143.229 230.192s28.387 56.172 64.943 56.172c41.795 0 66.797-56.118 66.797-56.118l.365 8.075-17.255 30.784-21.455 17.259-14.924 8.395s-7.459 2.799-12.591 2.799c-5.135 0-19.122-2.333-26.585-9.328-7.464-6.996-24.254-21.46-28.45-27.521-4.199-6.062-11.195-27.983-11.195-27.983l.35-2.534z" />
    </g>
    <path clip-path="url(#f)" fill="#7E543A"
          d="M252.657 277.268l-10.667 6.998-9.271 6.646-23.608 8.444-23.611-8.444-9.271-6.646-10.666-6.998-4.199 6.647.586.293s2.794-.47 6.523 1.863c3.733 2.335 3.27 6.996 3.27 6.996s5.361-.233 10.959 2.568c5.596 2.794 7.168 6.47 7.168 6.47l2.273.701s3.501-1.229 7.522-.353c4.024.874 6.473 4.548 6.473 4.548l2.624.136v.041l.35-.022.35.022v-.041l2.623-.136s2.447-3.674 6.469-4.548c4.023-.876 7.521.353 7.521.353l2.275-.701s1.573-3.676 7.169-6.47c5.599-2.802 10.958-2.568 10.958-2.568s-.464-4.661 3.269-6.996c3.73-2.333 6.527-1.863 6.527-1.863l.586-.293-4.202-6.647z" />
    <g clip-path="url(#f)">
        <path fill="#7E543A"
              d="M284.78 166.964s7.928 33.582-1.866 71.826c-9.794 38.249-22.851 45.242-22.851 45.242l-6.066-10.261s21.457-23.324 27.518-62.964c6.063-39.643 3.265-43.843 3.265-43.843z" />
    </g>
    <path clip-path="url(#f)" fill="#7E543A"
          d="M220.896 137.353c6.602-1.867 12.546-.366 12.546-.366s3.967-3.365 18.105-1.967c14.146 1.398 22.157 6.999 22.157 6.999l-8.492-11.896-6.2-5.596-18.886 8.627-31.366 3.915-28.336-3.684-21.688-9.559-6.432 6.296-8.024 11.426s8.476-5.83 22.619-7.229c14.143-1.398 17.176 2.667 17.176 2.667s5.944-1.967 12.545-.104l24.276.471z" />
    <g clip-path="url(#f)">
        <path fill="#7E543A"
              d="M275.569 140.384s4.661 1.165 7.23-1.4c2.564-2.565 1.629-6.761 1.629-6.761l.47-5.365-13.762-9.562-8.86 5.832 3.498 8.396 9.795 8.86z" />
    </g>
    <path fill="#B15C12"
          d="M165.481 315.44c-1.043 0-3.669-.25-5.551-2.577-2.005-2.483-2.443-6.436-1.304-11.75 2.842-13.25 13.485-17.73 13.938-17.916a1.894 1.894 0 011.738.156l9.996 6.346c.595.375.932 1.052.876 1.752a1.894 1.894 0 01-1.132 1.599c-2.464 1.089-8.966 4.916-9.432 9.478-.753 7.415-5.897 12.328-7.927 12.793a5.642 5.642 0 01-1.202.119z" />
    <path fill="#472A2B"
          d="M173.282 284.96l9.996 6.346s-9.879 4.341-10.561 11.028c-.68 6.687-5.305 10.869-6.456 11.132-.157.035-.43.07-.78.07-2.173 0-7.285-1.33-4.992-12.023 2.662-12.42 12.793-16.553 12.793-16.553m0-3.808c-.483 0-.974.092-1.436.284-.489.197-12.032 5.054-15.079 19.276-1.269 5.906-.7 10.396 1.684 13.346 1.686 2.088 4.249 3.285 7.03 3.285.593 0 1.154-.057 1.628-.164 3.313-.76 8.616-6.768 9.397-14.462.344-3.382 5.742-6.8 8.304-7.925a3.806 3.806 0 00.508-6.701l-9.993-6.346a3.833 3.833 0 00-2.043-.593z" />
    <path fill="#B15C12"
          d="M178.224 319.674c-3.035 0-7.071-1.786-9.053-10.292-3.587-15.406 9.597-22.545 9.73-22.616.279-.146.585-.219.887-.219.36 0 .717.103 1.032.303l9.359 6.029a1.903 1.903 0 01-.04 3.228c-.069.04-7.063 4.477-5.67 8.832 2.098 6.56-.317 13.03-2.907 14.026-.594.235-1.803.709-3.338.709z" />
    <path fill="#472A2B"
          d="M179.788 288.451l9.362 6.028s-8.39 5.107-6.493 11.04c1.895 5.926-.488 11.174-1.778 11.667-.374.147-1.388.583-2.655.583-2.313 0-5.484-1.459-7.199-8.821-3.296-14.15 8.763-20.497 8.763-20.497m0-3.808c-.607 0-1.217.145-1.773.438-5.07 2.667-13.831 11.274-10.699 24.731 2.384 10.237 7.857 11.766 10.908 11.766 1.897 0 3.393-.589 3.955-.81l.069-.025c3.739-1.438 6.374-9.067 4.036-16.385-.724-2.269 3.03-5.503 4.855-6.632a3.824 3.824 0 001.812-3.208 3.806 3.806 0 00-1.739-3.239l-9.362-6.029a3.816 3.816 0 00-2.062-.607z" />
    <path fill="#B15C12"
          d="M190.506 322.144c-3.444 0-6.576-2.354-9.314-7-6.293-10.676 3.501-23.367 3.923-23.902a1.899 1.899 0 012.337-.533l8.384 4.131c.55.271.935.787 1.036 1.39a1.895 1.895 0 01-.517 1.651c-.044.047-4.678 4.896-2.082 8.274 3.936 5.126 4.177 11.457 1.768 13.696-.926.857-2.873 2.293-5.535 2.293z" />
    <path fill="#472A2B"
          d="M186.61 292.417l8.385 4.131s-5.887 6.011-2.231 10.769c3.651 4.757 3.366 9.853 1.978 11.14-.423.395-2.018 1.782-4.235 1.782-2.146 0-4.868-1.298-7.674-6.062-5.708-9.681 3.777-21.76 3.777-21.76m.001-3.808c-1.14 0-2.255.512-2.994 1.456-.454.577-11.012 14.26-4.067 26.045 3.105 5.267 6.79 7.937 10.957 7.937 3.313 0 5.699-1.753 6.826-2.798 3.083-2.862 3.194-10.074-1.551-16.253-1.537-2.002 1.91-5.761 1.945-5.798a3.821 3.821 0 00-1.049-6.066l-8.385-4.13a3.784 3.784 0 00-1.682-.393z" />
    <path fill="#B15C12"
          d="M252.499 315.44c1.043 0 3.67-.25 5.55-2.577 2.006-2.483 2.444-6.436 1.306-11.75-2.843-13.25-13.486-17.73-13.938-17.916a1.899 1.899 0 00-1.738.156l-9.996 6.346a1.906 1.906 0 00-.881 1.752 1.91 1.91 0 001.135 1.599c2.463 1.089 8.967 4.916 9.434 9.478.751 7.415 5.896 12.328 7.926 12.793a5.67 5.67 0 001.202.119z" />
    <path fill="#472A2B"
          d="M244.698 284.96s10.133 4.133 12.795 16.553c2.293 10.693-2.82 12.023-4.994 12.023-.352 0-.624-.035-.78-.07-1.15-.263-5.775-4.445-6.458-11.132-.68-6.688-10.56-11.028-10.56-11.028l9.997-6.346m0-3.808c-.713 0-1.422.201-2.042.594l-9.994 6.346a3.812 3.812 0 00-1.759 3.504 3.812 3.812 0 002.268 3.197c2.56 1.125 7.959 4.543 8.304 7.925.78 7.694 6.085 13.702 9.397 14.462a7.532 7.532 0 001.627.164c2.78 0 5.344-1.197 7.03-3.285 2.386-2.949 2.952-7.439 1.686-13.346-3.05-14.223-14.59-19.079-15.08-19.276a3.728 3.728 0 00-1.437-.285z" />
    <path fill="#B15C12"
          d="M239.755 319.674c3.039 0 7.074-1.786 9.055-10.292 3.588-15.406-9.598-22.545-9.731-22.616a1.9 1.9 0 00-1.917.084l-9.359 6.029a1.91 1.91 0 00-.875 1.625c.009.656.354 1.261.915 1.603.065.04 7.06 4.477 5.667 8.832-2.096 6.56.32 13.03 2.907 14.026.596.235 1.804.709 3.338.709z" />
    <path fill="#472A2B"
          d="M238.193 288.451s12.057 6.347 8.762 20.497c-1.714 7.362-4.883 8.821-7.201 8.821-1.266 0-2.277-.436-2.654-.583-1.287-.493-3.67-5.741-1.774-11.667 1.893-5.933-6.494-11.04-6.494-11.04l9.361-6.028m0-3.808a3.81 3.81 0 00-2.063.607l-9.361 6.029a3.816 3.816 0 00.071 6.447c1.826 1.129 5.581 4.363 4.856 6.632-2.338 7.317.297 14.946 4.036 16.385l.068.025c.562.221 2.06.81 3.953.81 3.054 0 8.526-1.528 10.911-11.766 3.133-13.457-5.629-22.064-10.7-24.731a3.777 3.777 0 00-1.771-.438z" />
    <path fill="#B15C12"
          d="M227.473 322.144c3.446 0 6.58-2.354 9.317-7 6.293-10.676-3.503-23.367-3.923-23.902a1.905 1.905 0 00-2.34-.533l-8.385 4.131a1.904 1.904 0 00-.518 3.041c.046.047 4.681 4.896 2.083 8.274-3.935 5.126-4.177 11.457-1.766 13.696.923.857 2.871 2.293 5.532 2.293z" />
    <path fill="#472A2B"
          d="M231.368 292.417s9.488 12.079 3.781 21.76c-2.807 4.764-5.531 6.062-7.677 6.062-2.216 0-3.81-1.388-4.235-1.782-1.389-1.287-1.674-6.383 1.981-11.14 3.651-4.758-2.233-10.769-2.233-10.769l8.383-4.131m-.001-3.808c-.566 0-1.144.127-1.681.394l-8.384 4.13a3.823 3.823 0 00-1.052 6.066c.036.037 3.484 3.796 1.945 5.798-4.743 6.179-4.632 13.391-1.548 16.253 1.127 1.045 3.511 2.798 6.824 2.798 4.167 0 7.854-2.67 10.957-7.937 6.946-11.785-3.611-25.468-4.065-26.045a3.802 3.802 0 00-2.996-1.457z" />
    <circle fill="#342209" cx="183.67" cy="55.904" r="8.521" />
    <circle fill="#342209" cx="247.915" cy="55.904" r="8.521" />
    <path fill="#706967"
          d="M5.325 30.365L88.021 8.831c3.792-.986 7.7 1.308 8.686 5.098l23.329 89.588c.985 3.789-1.308 7.697-5.099 8.685l-82.695 21.533c-3.79.987-7.698-1.307-8.687-5.097L.229 39.05c-.987-3.791 1.307-7.698 5.096-8.685z" />
    <path fill="#423C3A"
          d="M88.021 8.831L5.325 30.365c-3.789.986-6.083 4.894-5.096 8.685l1.121 4.308c-.987-3.79 1.308-7.698 5.097-8.686l82.697-21.533c3.79-.987 7.698 1.308 8.686 5.097l-1.123-4.307c-.985-3.79-4.894-6.084-8.686-5.098z" />
    <path fill="#F2EFE9"
          d="M17.08 40.181l65.468-17.047a3.572 3.572 0 014.343 2.55l18.841 72.357a3.571 3.571 0 01-2.547 4.344l-65.468 17.047a3.57 3.57 0 01-4.343-2.55L14.532 44.524a3.573 3.573 0 012.548-4.343z" />
    <path fill="#CCD0D2"
          d="M22.626 33.219l51.686-13.458a1.783 1.783 0 012.171 1.273l1.795 6.893c.739 2.843-.981 5.773-3.822 6.514L29.661 46.104c-2.843.739-5.774-.981-6.514-3.822l-1.796-6.894a1.784 1.784 0 011.275-2.169z" />
    <path fill="#472A2B"
          d="M36.447 55.719L83.32 43.515a2.208 2.208 0 001.575-2.686 2.206 2.206 0 00-2.683-1.576L35.337 51.458a2.208 2.208 0 00-1.575 2.686 2.21 2.21 0 002.685 1.575zm48.538-5.815L38.113 62.109a2.207 2.207 0 00-1.577 2.685 2.207 2.207 0 002.686 1.576l46.873-12.203a2.212 2.212 0 001.576-2.687 2.21 2.21 0 00-2.686-1.576zm2.773 10.652L40.886 72.762a2.21 2.21 0 00-1.574 2.688 2.203 2.203 0 002.684 1.574L88.868 64.82a2.207 2.207 0 001.577-2.685 2.213 2.213 0 00-2.687-1.579zm-60.943-6.878l-2.131.553a2.212 2.212 0 00-1.574 2.688 2.207 2.207 0 002.685 1.573l2.132-.553a2.207 2.207 0 001.574-2.685 2.206 2.206 0 00-2.686-1.576zm2.776 10.651l-2.132.556a2.206 2.206 0 00-1.574 2.685 2.205 2.205 0 002.683 1.575l2.132-.555a2.207 2.207 0 001.575-2.686 2.204 2.204 0 00-2.684-1.575zm2.774 10.652l-2.132.556a2.21 2.21 0 00-1.576 2.686 2.209 2.209 0 002.686 1.575l2.13-.556a2.204 2.204 0 001.576-2.685 2.21 2.21 0 00-2.684-1.576zm58.167-3.77L43.659 83.416a2.21 2.21 0 00-1.576 2.686 2.21 2.21 0 002.686 1.575l46.873-12.205a2.207 2.207 0 001.576-2.685 2.209 2.209 0 00-2.686-1.576zm2.776 10.651L46.434 94.07a2.206 2.206 0 00-1.576 2.685 2.211 2.211 0 002.686 1.576l46.872-12.206a2.21 2.21 0 001.577-2.687 2.211 2.211 0 00-2.685-1.576zm-58.17 3.774l-2.132.553c-1.169.307-1.879 1.516-1.574 2.687s1.514 1.88 2.686 1.574l2.13-.553a2.207 2.207 0 001.575-2.685 2.207 2.207 0 00-2.685-1.576zm2.773 10.653l-2.13.553a2.21 2.21 0 00-1.576 2.687 2.208 2.208 0 002.686 1.576l2.131-.555a2.206 2.206 0 001.575-2.686 2.205 2.205 0 00-2.686-1.575z" />
    <path fill="#CCD0D2"
          d="M33.681 15.622L56.078 9.79c2.843-.739 5.773.98 6.515 3.822l2.242 8.614-32.732 8.524-2.245-8.612c-.74-2.844.98-5.776 3.823-6.516z" />
    <path fill="#BCC0C2"
          d="M21.352 35.389l.897 3.445 55.13-14.354-.896-3.445a1.783 1.783 0 00-2.171-1.273L22.626 33.219a1.783 1.783 0 00-1.274 2.17z" />
    <path fill="#AEB1B3" d="M31.205 27.306l32.732-8.524.897 3.445-32.732 8.524-.897-3.445z" />
    <path fill="#A78462" stroke="#47292B" stroke-width="6" stroke-miterlimit="10"
          d="M21.406 135.533c-1.909-11.58.961-18.639 11.953-25.146 10.994-6.507 31.249-23.171 38.315-32.258 3.375-4.336 8.103-3.654 8.909.515 3.545 18.333-8.572 28.43-18.163 37.014 10.433-6.06 21.538-19.354 29.197-4.459 2.61 14.053-10.854 30.543-17.787 33.259 5.419.146 11.983 3.007 19.049 13.217-1.419 7.385-7.576 14.109-15.087 17.549-6.749 3.092-14.744 3.201-18.787 4.29 1.845.445-15.688 3.496-23.008-10.628-12.529-24.183-13.467-26.54-14.591-33.353z" />
    <circle fill="#E7685E" cx="26.009" cy="55.396" r="4.071" />
    <circle fill="#E7685E" cx="29.268" cy="66.835" r="4.071" />
    <circle fill="#5BB06C" cx="32.192" cy="77.655" r="4.07" />
    <circle fill="#5BB06C" cx="34.666" cy="87.548" r="4.071" />
    <circle fill="#5BB06C" cx="37.41" cy="98.872" r="4.071" />
</svg>
