<svg xmlns="http://www.w3.org/2000/svg"  viewBox="0 0 24 24" width="24px" height="24px"><path d="M 8 1.25 A 4.756 4.756 0 0 0 3.25 6 L 3.25 18 A 4.756 4.756 0 0 0 8 22.75 L 16 22.75 A 4.756 4.756 0 0 0 20.75 18 L 20.75 7.828125 A 2.73 2.73 0 0 0 20.519531 6.7285156 A 0.75 0.75 0 0 0 20.509766 6.7089844 A 2.73 2.73 0 0 0 20.488281 6.6601562 A 0.75 0.75 0 0 0 20.482422 6.6503906 A 2.73 2.73 0 0 0 19.943359 5.8847656 L 16.115234 2.0566406 A 2.729 2.729 0 0 0 15.351562 1.5175781 A 0.75 0.75 0 0 0 15.289062 1.4882812 A 2.729 2.729 0 0 0 14.171875 1.25 L 8 1.25 z M 8 2.75 L 14.171875 2.75 A 1.258 1.258 0 0 1 14.25 2.7539062 L 14.25 5 A 2.753 2.753 0 0 0 17 7.75 L 19.246094 7.75 A 1.246 1.246 0 0 1 19.25 7.828125 L 19.25 18 A 3.254 3.254 0 0 1 16 21.25 L 8 21.25 A 3.254 3.254 0 0 1 4.75 18 L 4.75 6 A 3.254 3.254 0 0 1 8 2.75 z M 15.75 3.8085938 L 18.191406 6.25 L 17 6.25 A 1.252 1.252 0 0 1 15.75 5 L 15.75 3.8085938 z M 7.96875 11.25 A 0.75 0.75 0 0 0 8 12.75 L 16 12.75 A 0.75 0.75 0 0 0 16 11.25 L 8 11.25 A 0.75 0.75 0 0 0 7.96875 11.25 z M 7.96875 15.25 A 0.75 0.75 0 0 0 8 16.75 L 12 16.75 A 0.75 0.75 0 0 0 12 15.25 L 8 15.25 A 0.75 0.75 0 0 0 7.96875 15.25 z"/></svg>